<?xml version="1.0" standalone="no"?>
<!DOCTYPE svg PUBLIC "-//W3C//DTD SVG 20010904//EN"
 "http://www.w3.org/TR/2001/REC-SVG-20010904/DTD/svg10.dtd">
<svg version="1.0" xmlns="http://www.w3.org/2000/svg"
 width="260.000000pt" height="260.000000pt" viewBox="0 0 260.000000 260.000000"
 preserveAspectRatio="xMidYMid meet">
<metadata>
Created by potrace 1.11, written by Peter Selinger 2001-2013
</metadata>
<g transform="translate(0.000000,260.000000) scale(0.100000,-0.100000)"
fill="#000000" stroke="none">
<path d="M0 1300 l0 -1300 1300 0 1300 0 0 1300 0 1300 -1300 0 -1300 0 0
-1300z m1330 -87 c0 -211 1 -217 18 -192 19 29 65 70 99 88 12 6 51 11 86 11
73 0 116 -22 154 -79 39 -57 43 -95 43 -398 l0 -293 -34 0 -34 0 -4 293 c-3
271 -5 295 -24 332 -56 109 -199 96 -271 -25 l-33 -54 0 -273 0 -273 -40 0
-40 0 0 540 0 540 40 0 40 0 0 -217z m-382 -5 l3 -98 64 0 65 0 0 -35 0 -35
-65 0 -65 0 0 -280 c0 -229 3 -286 15 -310 17 -32 41 -43 88 -38 31 3 32 1 32
-32 l0 -35 -57 -3 c-71 -4 -109 14 -134 65 -17 34 -19 68 -22 336 l-3 297 -60
0 -59 0 0 35 0 35 60 0 60 0 0 101 0 100 38 -3 37 -3 3 -97z m-505 -246 l218
-115 -3 -35 -3 -36 -248 -132 -248 -133 3 46 3 46 204 105 203 105 -206 104
-206 105 0 44 0 45 33 -17 c17 -9 130 -68 250 -132z m1937 -647 l0 -35 -265 0
-265 0 0 35 0 35 265 0 265 0 0 -35z"/>
</g>
</svg>
